{"title":"Hunter X Hunter - 132 [Hi10 720p] [ENG SUBBED] [GWC].mp4","uid":10291596,"size":98495853,"categoryP":"video","categoryS":"tv_shows","magnet":"?xt=urn:btih:2e81ca37af31123627756b0731306ca89cb09c68&amp;dn=Hunter+X+Hunter+-+132+%5BHi10+720p%5D+%5BENG+SUBBED%5D+%5BGWC%5D.mp4&amp;tr=udp%3A%2F%2Ftracker.openbittorrent.com%3A80&amp;tr=udp%3A%2F%2Fopen.demonii.com%3A1337&amp;tr=udp%3A%2F%2Ftracker.coppersurfer.tk%3A6969&amp;tr=udp%3A%2F%2Fexodus.desync.com%3A6969","seeders":1,"leechers":1,"uploader":"canc232","files":1,"time":1401865607,"description":"Hunter X Hunter - 132 [Hi10 720p] [ENG SUBBED] [GWC] \n\n\nSTORYLINE :\nGon is a youth who lives on Kujira Isle. His dream is to become a Hunter like his father, to search out lost treasures, artefacts, and mythical creatures.\nDetermined to become a professional Hunter willing to stake his life in challenging the unknown, he sets off on a journey and meets fellow Hunter wannabes Killua, Kurapika, and Leorio.\n\n\nTHUMBNAIL IMAGE: &lt;a href=&quot;\nhttp://crazyimg.net/image.php?di=DCAP&quot; rel=&quot;nofollow&quot; target=&quot;_NEW&quot;&gt;\nhttp://crazyimg.net/image.php?di=DCAP&lt;/a&gt;\n\n\n\nMEDIA INFO :\nFormat : MPEG-4 \nFormat profile : Base Media \nFile size : 93.9 MiB \nDuration : 20mn 59s \nOverall bit rate mode : Variable \nOverall bit rate : 625 Kbps \n\nVideo \nFormat : AVC \nFormat profile : High &lt;a class=&quot;__cf_email__&quot; href=&quot;/cdn-cgi/l/email-protection&quot; data-cfemail=&quot;2514156569110b14&quot;&gt;[email&amp;#160;protected]&lt;/a&gt;&lt;script cf-hash='f9e31' type=&quot;text/javascript&quot;&gt;\n/* &lt;![CDATA[ */!function(){try{var t=&quot;currentScript&quot;in document?document.currentScript:function(){for(var t=document.getElementsByTagName(&quot;script&quot;),e=t.length;e--;)if(t[e].getAttribute(&quot;cf-hash&quot;))return t[e]}();if(t&amp;&amp;t.previousSibling){var e,r,n,i,c=t.previousSibling,a=c.getAttribute(&quot;data-cfemail&quot;);if(a){for(e=&quot;&quot;,r=parseInt(a.substr(0,2),16),n=2;a.length-n;n+=2)i=parseInt(a.substr(n,2),16)^r,e+=String.fromCharCode(i);e=document.createTextNode(e),c.parentNode.replaceChild(e,c)}}}catch(u){}}();/* ]]&gt; */&lt;/script&gt; \nFormat settings, CABAC : Yes \nFormat settings, ReFrames : 10 frames \nDuration : 20mn 59s \nBit rate : 549 Kbps \nMaximum bit rate : 3 694 Kbps \nWidth : 1 280 pixels \nHeight : 720 pixels \nDisplay aspect ratio : 16:9 \nFrame rate mode : Variable \nFrame rate : 23.976 fps \nStream size : 82.5 MiB (88%) \nTitle : Hunter X Hunter - 132 [Hi10 720p] [ENG SUBBED] [GWC] \nWriting library : x264 core\nLanguage : English \n\nAudio \nFormat : AAC \nFormat profile : HE-AAC / LC \nDuration : 20mn 59s \nBit rate mode : Variable \nChannel(s) : 2 channels \nSampling rate : 44.1 KHz / 22.05 KHz \nCompression mode : Lossy \nStream size : 10.8 MiB (12%) \nLanguage : Japanese \n\nText \nFormat : Timed Text \nTitle : [GWC] \nLanguage : English ","torrent":{"xt":"urn:btih:2e81ca37af31123627756b0731306ca89cb09c68","amp;dn":"Hunter+X+Hunter+-+132+%5BHi10+720p%5D+%5BENG+SUBBED%5D+%5BGWC%5D.mp4","amp;tr":["udp%3A%2F%2Ftracker.openbittorrent.com%3A80","udp%3A%2F%2Fopen.demonii.com%3A1337","udp%3A%2F%2Ftracker.coppersurfer.tk%3A6969","udp%3A%2F%2Fexodus.desync.com%3A6969"],"infoHash":"2e81ca37af31123627756b0731306ca89cb09c68","infoHashBuffer":{"type":"Buffer","data":[46,129,202,55,175,49,18,54,39,117,107,7,49,48,108,168,156,176,156,104]},"announce":[],"urlList":[]}}